<svg width="40" height="40" viewBox="0 0 40 40" fill="none" xmlns="http://www.w3.org/2000/svg">
<path d="M19.9977 8.21259C12.2852 8.21259 6.03516 13.1501 6.03516 19.2501C6.03516 23.2251 8.68516 26.7001 12.6602 28.6501C12.3727 29.7376 11.5977 32.6001 11.4477 33.2126C11.2602 33.9751 11.7227 33.9626 12.0352 33.7626C12.2727 33.6001 15.8602 31.1626 17.4102 30.1126C18.2477 30.2376 19.1227 30.3001 19.9977 30.3001C27.7102 30.3001 33.9602 25.3626 33.9602 19.2626C33.9602 13.1626 27.7102 8.22506 19.9977 8.22506" fill="#777777"/>
<path d="M10.2461 17.2252H11.6836C11.6836 17.2252 11.6836 21.1752 11.6836 22.1002C11.6836 22.7752 13.1836 22.7752 13.1711 22.1002V17.2752C13.1711 17.2752 13.6586 17.2752 14.6086 17.2752C15.5086 17.2752 15.5086 15.8752 14.6086 15.8627C13.5961 15.8627 10.2336 15.8377 10.2336 15.8377C9.39609 15.8377 9.39609 17.2126 10.2336 17.2126" fill="white"/>
<path d="M17.1341 17.4876L17.9341 20.0001H16.2716L17.1341 17.4876ZM16.2341 16.3126C15.8841 17.0876 14.5966 20.7751 14.1841 21.7501C13.8716 22.4501 15.1966 23.0251 15.5091 22.3251L15.7966 21.3251H18.4216C18.4216 21.3251 18.3341 21.3626 18.6841 22.2876C18.9716 23.0376 20.3341 22.5126 20.0466 21.7751C19.6466 20.7126 18.2466 16.8751 17.9966 16.3251C17.8841 16.0751 17.4591 15.8876 17.0466 15.8876C16.7091 15.8876 16.3841 16.0126 16.2341 16.3251" fill="white"/>
<path d="M20.5479 16.5377C20.5479 17.7877 20.5479 21.8127 20.5479 21.8127C20.5479 21.8127 20.4353 22.6126 21.1228 22.6126C21.8103 22.6126 23.3354 22.6126 24.0104 22.6126C24.6854 22.6126 24.6854 21.1751 24.0104 21.1751C23.3354 21.1751 22.0979 21.1751 22.0979 21.1751C22.0979 21.1751 22.0979 17.4502 22.0979 16.5377C22.0979 16.1002 21.7104 15.8752 21.3229 15.8752C20.9354 15.8752 20.5479 16.1002 20.5479 16.5377Z" fill="white"/>
<path d="M24.8718 16.3376C24.8843 16.8876 24.8594 21.8501 24.8594 22.2126C24.8594 22.7876 26.3344 22.7876 26.3344 22.2126C26.3344 21.5376 26.3344 20.2626 26.3344 20.2626L26.7719 19.9126L28.6719 22.5001C29.0594 23.0001 30.2594 22.0876 29.8719 21.5876L27.8594 18.9376C27.8594 18.9376 29.2219 17.4626 29.7594 16.9251C30.0719 16.6126 29.0969 15.6376 28.7844 15.9501C28.4844 16.2501 26.3344 18.4001 26.3344 18.4001C26.3344 18.4001 26.3594 17.0501 26.3344 16.3126C26.3344 16.0251 25.9844 15.8876 25.6219 15.8876C25.2469 15.8876 24.8594 16.0501 24.8594 16.3501" fill="white"/>
</svg>
