<svg width="40" height="40" viewBox="0 0 40 40" fill="none" xmlns="http://www.w3.org/2000/svg">
<path d="M19.9977 8.21259C12.2852 8.21259 6.03516 13.1501 6.03516 19.2501C6.03516 23.2251 8.68516 26.7001 12.6602 28.6501C12.3727 29.7376 11.5977 32.6001 11.4477 33.2126C11.2602 33.9751 11.7227 33.9626 12.0352 33.7626C12.2727 33.6001 15.8602 31.1626 17.4102 30.1126C18.2477 30.2376 19.1227 30.3001 19.9977 30.3001C27.7102 30.3001 33.9602 25.3626 33.9602 19.2626C33.9602 13.1626 27.7102 8.22506 19.9977 8.22506" fill="#3B1A1C"/>
<path d="M10.2481 17.2251H11.6856C11.6856 17.2251 11.6856 21.1751 11.6856 22.1001C11.6856 22.7751 13.1856 22.7751 13.1731 22.1001V17.2751C13.1731 17.2751 13.6605 17.2751 14.6105 17.2751C15.5106 17.2751 15.5106 15.8751 14.6105 15.8626C13.598 15.8626 10.2355 15.8376 10.2355 15.8376C9.39805 15.8376 9.39805 17.2126 10.2355 17.2126" fill="#FDDE00"/>
<mask id="mask0_5492_8279" style="mask-type:luminance" maskUnits="userSpaceOnUse" x="9" y="15" width="7" height="8">
<path d="M10.2481 17.2251H11.6856C11.6856 17.2251 11.6856 21.1751 11.6856 22.1001C11.6856 22.7751 13.1856 22.7751 13.1731 22.1001V17.2751C13.1731 17.2751 13.6605 17.2751 14.6105 17.2751C15.5106 17.2751 15.5106 15.8751 14.6105 15.8626C13.598 15.8626 10.2355 15.8376 10.2355 15.8376C9.39805 15.8376 9.39805 17.2126 10.2355 17.2126" fill="white"/>
</mask>
<g mask="url(#mask0_5492_8279)">
<path d="M15.509 15.8501H9.39648V22.7751H15.509V15.8501Z" fill="#FDDE00"/>
</g>
<path d="M17.136 17.4876L17.936 20.0001H16.2735L17.136 17.4876ZM16.236 16.3126C15.886 17.0876 14.5985 20.7751 14.186 21.7501C13.8735 22.4501 15.1985 23.0251 15.511 22.3251L15.7985 21.3251H18.4235C18.4235 21.3251 18.336 21.3626 18.686 22.2876C18.9735 23.0376 20.336 22.5126 20.0485 21.7751C19.6485 20.7126 18.2485 16.8751 17.9985 16.3251C17.886 16.0751 17.461 15.8876 17.0485 15.8876C16.711 15.8876 16.386 16.0126 16.236 16.3251" fill="#FDDE00"/>
<mask id="mask1_5492_8279" style="mask-type:luminance" maskUnits="userSpaceOnUse" x="14" y="15" width="7" height="8">
<path d="M17.136 17.4876L17.936 20.0001H16.2735L17.136 17.4876ZM16.236 16.3126C15.886 17.0876 14.5985 20.7751 14.186 21.7501C13.8735 22.4501 15.1985 23.0251 15.511 22.3251L15.7985 21.3251H18.4235C18.4235 21.3251 18.336 21.3626 18.686 22.2876C18.9735 23.0376 20.336 22.5126 20.0485 21.7751C19.6485 20.7126 18.2485 16.8751 17.9985 16.3251C17.886 16.0751 17.461 15.8876 17.0485 15.8876C16.711 15.8876 16.386 16.0126 16.236 16.3251" fill="white"/>
</mask>
<g mask="url(#mask1_5492_8279)">
<path d="M20.3231 15.8751H13.873V23.0251H20.3231V15.8751Z" fill="#FDDE00"/>
</g>
<path d="M20.5459 16.5376C20.5459 17.7876 20.5459 21.8126 20.5459 21.8126C20.5459 21.8126 20.4334 22.6126 21.1209 22.6126C21.8084 22.6126 23.3334 22.6126 24.0084 22.6126C24.6834 22.6126 24.6834 21.1751 24.0084 21.1751C23.3334 21.1751 22.0959 21.1751 22.0959 21.1751C22.0959 21.1751 22.0959 17.4501 22.0959 16.5376C22.0959 16.1001 21.7084 15.8751 21.3209 15.8751C20.9334 15.8751 20.5459 16.1001 20.5459 16.5376Z" fill="#FDDE00"/>
<mask id="mask2_5492_8279" style="mask-type:luminance" maskUnits="userSpaceOnUse" x="20" y="15" width="5" height="8">
<path d="M20.5459 16.5376C20.5459 17.7876 20.5459 21.8126 20.5459 21.8126C20.5459 21.8126 20.4334 22.6126 21.1209 22.6126C21.8084 22.6126 23.3334 22.6126 24.0084 22.6126C24.6834 22.6126 24.6834 21.1751 24.0084 21.1751C23.3334 21.1751 22.0959 21.1751 22.0959 21.1751C22.0959 21.1751 22.0959 17.4501 22.0959 16.5376C22.0959 16.1001 21.7084 15.8751 21.3209 15.8751C20.9334 15.8751 20.5459 16.1001 20.5459 16.5376Z" fill="white"/>
</mask>
<g mask="url(#mask2_5492_8279)">
<path d="M24.6855 15.8751H20.4355V22.6126H24.6855V15.8751Z" fill="#FDDE00"/>
</g>
<path d="M24.8738 16.3376C24.8863 16.8876 24.8613 21.8501 24.8613 22.2126C24.8613 22.7876 26.3363 22.7876 26.3363 22.2126C26.3363 21.5376 26.3363 20.2626 26.3363 20.2626L26.7738 19.9126L28.6738 22.5001C29.0613 23.0001 30.2613 22.0876 29.8738 21.5876L27.8613 18.9376C27.8613 18.9376 29.2238 17.4626 29.7613 16.9251C30.0738 16.6126 29.0988 15.6376 28.7863 15.9501C28.4863 16.2501 26.3363 18.4001 26.3363 18.4001C26.3363 18.4001 26.3613 17.0501 26.3363 16.3126C26.3363 16.0251 25.9863 15.8876 25.6238 15.8876C25.2488 15.8876 24.8613 16.0501 24.8613 16.3501" fill="#FDDE00"/>
<mask id="mask3_5492_8279" style="mask-type:luminance" maskUnits="userSpaceOnUse" x="24" y="15" width="6" height="8">
<path d="M24.8738 16.3376C24.8863 16.8876 24.8613 21.8501 24.8613 22.2126C24.8613 22.7876 26.3363 22.7876 26.3363 22.2126C26.3363 21.5376 26.3363 20.2626 26.3363 20.2626L26.7738 19.9126L28.6738 22.5001C29.0613 23.0001 30.2613 22.0876 29.8738 21.5876L27.8613 18.9376C27.8613 18.9376 29.2238 17.4626 29.7613 16.9251C30.0738 16.6126 29.0988 15.6376 28.7863 15.9501C28.4863 16.2501 26.3363 18.4001 26.3363 18.4001C26.3363 18.4001 26.3613 17.0501 26.3363 16.3126C26.3363 16.0251 25.9863 15.8876 25.6238 15.8876C25.2488 15.8876 24.8613 16.0501 24.8613 16.3501" fill="white"/>
</mask>
<g mask="url(#mask3_5492_8279)">
<path d="M30.2496 15.6251H24.8496V23.0001H30.2496V15.6251Z" fill="#FDDE00"/>
</g>
</svg>
